<svg xmlns="http://www.w3.org/2000/svg" viewBox="0 0 1194.72 550.04"><defs><style>.cls-1{font-size:104.74px;font-family:Montserrat-Bold, Montserrat;font-weight:700;}.cls-1,.cls-9{fill:#fff;}.cls-2{letter-spacing:0em;}.cls-3{letter-spacing:0em;}.cls-4{letter-spacing:0em;}.cls-5{letter-spacing:-0.01em;}.cls-6{letter-spacing:0em;}.cls-7{letter-spacing:-0.02em;}.cls-8{letter-spacing:-0.01em;}</style></defs><g id="Layer_2" data-name="Layer 2"><g id="Layer_2-2" data-name="Layer 2"><text class="cls-1" transform="translate(532.86 185.99)">HEIGH<tspan class="cls-2" x="354.66" y="0">T</tspan><tspan class="cls-3" x="418.87" y="0">S</tspan><tspan x="0" y="125.69">T</tspan><tspan class="cls-4" x="64.73" y="125.69">E</tspan><tspan x="134.8" y="125.69">CHNI</tspan><tspan class="cls-5" x="415.2" y="125.69">C</tspan><tspan x="490.51" y="125.69">AL</tspan><tspan x="0" y="251.38">UN</tspan><tspan class="cls-6" x="167.17" y="251.38">I</tspan><tspan class="cls-7" x="201.11" y="251.38">V</tspan><tspan class="cls-3" x="277.67" y="251.38">ERSI</tspan><tspan class="cls-8" x="526.12" y="251.38">T</tspan><tspan x="589.49" y="251.38">Y</tspan></text><path class="cls-9" d="M400.82,26.92a59.67,59.67,0,0,0-22.72,4.51l-4.74,2a68.79,68.79,0,0,1-26.18,5.16A68.55,68.55,0,0,1,306.11,25a127.46,127.46,0,0,0-151.63,0,68.55,68.55,0,0,1-41.07,13.54,68.74,68.74,0,0,1-26.17-5.16l-4.75-2A59.72,59.72,0,0,0,0,86.77V293.14A251.51,251.51,0,0,0,156.1,525.85L201,544.27a77.2,77.2,0,0,0,58.57,0l44.91-18.42a251.51,251.51,0,0,0,156.1-232.71V86.77A59.88,59.88,0,0,0,400.82,26.92Zm48.5,266.22a240.24,240.24,0,0,1-149.1,222.28L255.3,533.84a66,66,0,0,1-50,0l-44.91-18.42A240.23,240.23,0,0,1,11.27,293.14V86.77a48.45,48.45,0,0,1,67-44.9l4.74,2a80,80,0,0,0,30.45,6,79.79,79.79,0,0,0,47.78-15.75,116.13,116.13,0,0,1,138.21,0,79.81,79.81,0,0,0,47.78,15.75,79.92,79.92,0,0,0,30.45-6l4.75-2a48.44,48.44,0,0,1,66.94,44.9Zm-219-31.26L37.09,373.43A228.89,228.89,0,0,0,164.66,505l44.91,18.41a54.7,54.7,0,0,0,41.46,0L295.94,505A229,229,0,0,0,423.51,373.43Zm-16,203.44c-2.53-.83-5.06-1.68-7.6-2.5a122.12,122.12,0,0,0-75.66-.37c-2.38.75-2.62.15-2.62-2q.11-44.76,0-89.5c0-1.79.45-2.81,2.16-3.54a66.9,66.9,0,0,1,10.88-3.66c2-.49,2.29.11,2.29,1.94q-.07,37.15,0,74.29a18.11,18.11,0,0,1,0,2.21c-.21,1.68.31,2.19,2.13,2.1,24.12-1.2,46.29,4.61,66.12,18.66.88.63,1.74,1.29,2.61,1.94Zm5.29.7c-13.35-11.18-27.88-20.23-44.74-25.14a76.69,76.69,0,0,0-22.2-3.42c-2.1,0-2.55-.75-2.55-2.72q.09-50.14,0-100.29c0-1.07-.27-2.08,1.49-2.06,9,.08,17.78.83,26.4,3.48,2,.63,2.79,1.5,2.78,3.74-.09,27,0,53.95-.12,80.92a5,5,0,0,0,2.72,4.85,118.17,118.17,0,0,1,29.34,25.71,84.84,84.84,0,0,1,9.69,15c.42.84.42.85.48,2.68Zm8.27,4.75c-2.9-5.81-5.55-11.65-8.74-17.24-7.76-13.6-17.7-25.26-30.61-34.25a3,3,0,0,1-1.4-2.84q.06-49.56,0-99.11c0-1.07-.47-2.5,1.66-1.54,10.26,4.62,20.06,9.95,28,18.19,7.27,7.58,11.17,16.48,11.14,27.14-.07,36.31,0,72.62,0,108.92C228,470.29,227.91,470.53,227.89,470.77Zm5.37-.15h-.45V465.5c0-34.34.15-68.68-.09-103a39.46,39.46,0,0,1,13-30.31c7.65-7.24,16.74-12.19,26.28-16.41,2.25-1,1.58.8,1.58,1.7,0,10.79,0,21.59,0,32.38q0,33,0,66a4.06,4.06,0,0,1-2,3.8c-15.32,10.83-26.31,25.25-34.36,42C235.88,464.62,234.61,467.63,233.26,470.62Zm6-3.18c-.52.42-1.12.95-1.72.41s.21-1,.44-1.43c9.14-17.85,23.3-30.88,39.94-41.5a3.8,3.8,0,0,0,2.08-3.67c0-27.22,0-54.44-.08-81.65,0-2.07.61-3,2.56-3.65,8.59-2.72,17.43-3.44,26.36-3.55,2.12,0,1.58,1.43,1.58,2.53q0,25,0,50c0,16.59,0,33.18,0,49.77,0,1.75-.25,2.59-2.32,2.65-24.55.71-45.18,11.11-64,26C242.52,464.71,240.91,466.09,239.28,467.44Zm92.82-30.75v26.48c-29-9.53-57.47-8.46-85.79,1.91a83.59,83.59,0,0,1,19.1-11.83,103.14,103.14,0,0,1,49.4-8.94c2.28.13,2.05-1,2.05-2.41q0-37.77,0-75.55c0-3.09,0-3.1,3-2.44a54.32,54.32,0,0,1,10.18,3.47,3.1,3.1,0,0,1,2.08,3.33Q332,403.7,332.1,436.69ZM390.2,51.05l-.46.14c-.16.05-.31.09-.46.15l-.85.28.88-.3h0l.21-.07.64-.19Zm1-.29-.68.19-.35.1.61-.18.28-.08Zm1.07-.28-.39.1.06,0Zm5-.83-.9.1-.12,0,.17,0Zm4.8-.15c-.51,0-1,0-1.53,0h.29C401.23,49.48,401.65,49.48,402.06,49.5Zm7.86,1.13-.59-.15.5.12Zm5.63,1.93-1-.43.41.16.35.15ZM438,244.81v1.63l.1.08ZM390.16,51.06l-.42.13.46-.14Zm25.12,1.38-.35-.15-.41-.16,1,.43.08,0Zm-5.45-1.84-.5-.12.59.15.59.15Zm-9-1.12h-.29c.51,0,1,0,1.53,0C401.65,49.48,401.23,49.48,400.82,49.48Zm-4.41.26h-.05l.9-.1Zm-4.44.82-.06,0,.39-.1Zm-.88.23-.28.08-.26.08.68-.19Zm-1.57.46-.21.07h0l0,0c.15-.06.3-.1.46-.15ZM438,85.82c0-.12,0-.24,0-.35l0-.69c0-.33,0-.65-.06-1s-.05-.6-.08-.9c0,0,0-.05,0-.08,0-.19,0-.38-.07-.57s0-.26,0-.39l0-.13c0-.23-.07-.47-.1-.7a.37.37,0,0,0,0-.12c0-.33-.1-.64-.16-1s-.1-.52-.15-.78l0-.17c-.07-.3-.13-.61-.2-.91l0-.13c-.07-.26-.13-.53-.2-.79h0c-.06-.22-.12-.44-.19-.67h0a5.94,5.94,0,0,0-.18-.6c0-.15-.09-.29-.13-.43-.21-.66-.43-1.31-.67-2-.08-.19-.15-.37-.22-.56l-.36-.88-.23-.51,0-.08c-.07-.14-.13-.28-.19-.42l-.2-.41c-.09-.2-.19-.4-.29-.6l-.07-.13c-.12-.24-.24-.47-.37-.7a.06.06,0,0,0,0,0c-.07-.11-.13-.23-.19-.34l0-.06-.48-.85-.53-.87-.1-.15c-.28-.46-.59-.91-.9-1.36-.16-.23-.31-.45-.48-.67-.76-1-1.57-2-2.42-3l-.49-.53h0l-.61-.63-.42-.43-.39-.37c-.15-.16-.32-.31-.48-.46s-.44-.4-.67-.6c-.52-.47-1.07-.92-1.62-1.36l-.44-.34-.12-.09-.56-.41-.36-.26-.46-.32q-.53-.37-1.08-.72l-.43-.27c-.28-.18-.56-.35-.85-.51a4.83,4.83,0,0,0-.45-.26l-.17-.1c-.38-.22-.76-.42-1.14-.61l-.54-.28-.54-.26-.42-.2-.51-.23-.17-.07-.08,0-1-.43-.56-.22-.58-.22-.12,0-.61-.21-.24-.08c-.24-.09-.49-.17-.74-.24l-.58-.17-.58-.17-.59-.15-.59-.15-.59-.13-.59-.13-.6-.12-1.14-.19-.81-.12-.22,0-.25,0c-.41,0-.81-.09-1.22-.12s-.57,0-.85-.06l-1,0c-.51,0-1,0-1.53,0H400l-.63,0-.47,0-.75,0-.89.07-.9.1-.12,0c-.54.06-1.06.14-1.6.23l-.08,0-.89.17c-.3.05-.59.12-.88.18l-.49.11-.39.1c-.23.06-.46.11-.68.18l-.68.19-.35.1-.46.14c-.16.05-.31.09-.46.15l-.85.28c-.59.21-1.18.44-1.77.68l-4.75,2a91.49,91.49,0,0,1-34.72,6.84c-.59,0-1.19,0-1.78,0h-.09l-1.49,0-.48,0c-.57,0-1.13,0-1.7-.09s-1.13-.07-1.7-.12l-1.7-.15A91.52,91.52,0,0,1,292.7,43.13a104.71,104.71,0,0,0-57-20.44V252.47L427.14,363A228.38,228.38,0,0,0,438,293.14V86.77C438,86.46,438,86.14,438,85.82ZM300.18,53.34a97.56,97.56,0,0,0,13.41,6.24L297.72,78,283.27,48.12ZM291.67,88.6l-8.31,25.14-24.77-22Zm-9.83,37.25,2,26.41-31.32-10.89ZM287,164.06l11.9,23.64-33.1,2Zm9.59,65,9.8-31.74,20,17.29Zm43.59,24.69L337.1,220.7,362.24,229Zm49.66,6.12-15.53-29.37,26.41-2Zm43.66-17.19-21-17.37,21-10.57Zm0-47.24a82.8,82.8,0,1,1-101.14-131,97,97,0,0,0,14.8,1.13,95.74,95.74,0,0,0,36.43-7.18l4.75-2a32.67,32.67,0,0,1,45.16,30.3ZM68.62,50.56c-.59-.14-1.18-.28-1.78-.39C67.44,50.28,68,50.41,68.62,50.56Zm98-6.51-.23.17h0Zm-.23.17h0l.23-.17Zm1.51-1.09-.75.55c-.12.08-.24.16-.35.25l-.18.12-.23.17h0l-.4.29-.35.24-.77.53c-.51.35-1,.69-1.55,1l-1.56,1c-.37.23-.74.46-1.12.68l-.07,0-.16.1-.1.06-.27.16-.14.08c-.41.25-.82.49-1.24.72h0l-.11.06-.05,0a1.05,1.05,0,0,0-.11.07l-1.39.77c-.54.29-1.08.58-1.63.85-1.08.56-2.18,1.1-3.29,1.61l-1.66.76-1.26.54-.89.37q-.37.16-.75.3c-.25.11-.49.21-.75.3l-.09,0-1.33.5-1,.38-.43.16-.44.15-.34.12-1.17.39c-.53.17-1.06.35-1.59.5h0l-.3.09-1.44.43-.11,0L137,58l-.63.17-.08,0-1.06.26-.29.08-1.3.3-.12,0-.64.14-1.23.25c-.28.07-.57.12-.86.17-.81.16-1.63.31-2.45.44l-.69.11h0l-1.13.17h-.17l-.67.1c-.33,0-.67.09-1,.12l-.65.08h-.07l-.84.09-.46.05-.3,0h-.11l-1.5.13h-.11l-1.45.1-.58,0-1.18,0h-.11l-.45,0-1.31,0h-3.14c-.73,0-1.47,0-2.2-.06L109,61c-.43,0-.86,0-1.29-.07l-.91-.06c-.37,0-.73-.05-1.1-.09l-1.54-.14-1.44-.16-.32,0-1.33-.17h0l-.28,0c-.41-.05-.83-.11-1.24-.18l-1-.15-1-.17-1-.17-1-.18-.95-.19-1-.21-.59-.13c-.13,0-.26-.06-.4-.09l-.35-.08-1.2-.3-.5-.13-1.39-.36L88,57.5l-.84-.25-.28-.09-1.23-.37-1.52-.51L84,56.23l-1.07-.37-.86-.31c-.54-.2-1.07-.39-1.59-.6l-.11,0c-.56-.21-1.11-.44-1.66-.66l-4.75-2L73.22,52l-.61-.23c-.44-.17-.88-.32-1.33-.47s-1.18-.37-1.77-.53l-.89-.23c-.59-.14-1.18-.28-1.78-.39L66,50c-.6-.1-1.19-.18-1.78-.26l-.74-.08h-.26c-.11,0-.23,0-.34,0h-.12l-.58,0c-.12,0-.25,0-.37,0l-.52,0-.52,0h-2l-.8,0-.9.06h0l-.66.06-.44,0-.69.08h0l-.86.12h0l-.7.11h0l-.51.09-.53.1-.88.19c-.21,0-.41.1-.62.15H51l-.41.11-.64.17-.58.17-.49.14-.85.29c-.16,0-.31.1-.45.15l-.4.14-.52.2-.74.29a6.14,6.14,0,0,0-.59.25l-.44.18L44,53c-.55.26-1.08.53-1.6.8l-.79.43h0l-.45.25-.54.32-.12.08c-.26.15-.53.31-.78.48l-.12.08-.69.46-.36.24c-.23.16-.46.32-.68.49l-.57.42-.51.39c-.18.15-.38.29-.56.45l-.75.62-.16.15c-.2.16-.39.33-.58.51l-.16.14-.05.05c-.12.1-.23.21-.34.32s-.23.21-.34.32l-.18.17-.54.54-.32.33,0,0,0,0-.37.39c-.3.31-.59.63-.87,1l-.56.66-.29.36-.29.36,0,0v0l-.4.52-.1.14,0,0-.28.39a0,0,0,0,0,0,0c-.14.18-.27.37-.4.55s-.25.37-.38.56l-.2.31c-.08.11-.16.23-.23.35v0c-.14.21-.26.41-.38.62l-.11.16,0,.06a2.71,2.71,0,0,0-.21.37c-.09.14-.17.28-.25.43l-.12.2c-.09.16-.18.32-.26.48l0,0c-.06.11-.12.21-.17.32s-.2.37-.29.56l0,0h0l-.14.27c-.15.31-.3.63-.44,1a.25.25,0,0,0,0,.09c-.08.15-.15.31-.22.47s-.13.32-.2.48-.2.47-.29.71l-.18.47-.32.87q-.16.48-.33,1c0,.09-.06.19-.08.28-.09.27-.18.56-.25.84s-.16.57-.23.85-.09.33-.13.5-.09.4-.14.59,0,.07,0,.1a1.62,1.62,0,0,0,0,.19s0,.06,0,.09l-.15.71a2,2,0,0,1,0,.24v0l-.07.39-.12.73c-.09.59-.17,1.2-.24,1.81a.31.31,0,0,1,0,.1c0,.33-.06.65-.08,1s-.05.65-.06,1c0,.66-.06,1.33-.06,2V293.14A228.69,228.69,0,0,0,33.45,363l191.41-110.5V22.69A104.67,104.67,0,0,0,167.9,43.13ZM83.57,110.28h80.27v10.23h-35v40.86H118.59V120.51h-35Zm14.68,67.5v37.57H88V132.53H98.25v35h50.91v-35h10.23v82.82H149.16V177.78ZM128.82,184v45.72H118.59V184Zm52.3,17.84A55.22,55.22,0,0,1,125.9,257h-4.39A55.22,55.22,0,0,1,66.29,201.8V110.28H76.51v89.33a47.2,47.2,0,1,0,94.39,0V110.28h10.22Z"/></g></g></svg>