<svg xmlns="http://www.w3.org/2000/svg" viewBox="0 0 699.22 835"><defs><style>.cls-1{fill:#42210b;}.cls-2{fill:#f7931e;}</style></defs><g id="Layer_2" data-name="Layer 2"><g id="Layer_4" data-name="Layer 4"><path class="cls-1" d="M349.61,17.12A175.15,175.15,0,0,1,454.52,51.71a121.05,121.05,0,0,0,72.53,23.92,121.23,121.23,0,0,0,46.23-9.12l7.2-3a73.55,73.55,0,0,1,101.63,68.17V445A364.7,364.7,0,0,1,455.75,782.45L387.58,810.4a100,100,0,0,1-75.94,0l-68.17-27.95A364.71,364.71,0,0,1,17.12,445V131.73A73.54,73.54,0,0,1,118.74,63.56l7.21,3a121.19,121.19,0,0,0,46.23,9.12A121,121,0,0,0,244.7,51.71,175.17,175.17,0,0,1,349.61,17.12m0-17.12A192.13,192.13,0,0,0,234.52,38a104.06,104.06,0,0,1-62.34,20.56,104.42,104.42,0,0,1-39.74-7.83l-7.21-3A90.68,90.68,0,0,0,0,131.73V445A381.81,381.81,0,0,0,237,798.29l68.17,28a117.2,117.2,0,0,0,88.92,0l68.18-28A381.82,381.82,0,0,0,699.22,445V131.73A90.68,90.68,0,0,0,574,47.72l-7.2,3a104.42,104.42,0,0,1-39.74,7.83A104.09,104.09,0,0,1,464.7,38,192.13,192.13,0,0,0,349.61,0Z"/><path class="cls-1" d="M642.92,566.91A347.58,347.58,0,0,1,449.26,766.62l-68.18,28a82.94,82.94,0,0,1-62.94,0l-68.17-28A347.57,347.57,0,0,1,56.3,566.91L349.61,397.56Z"/><path class="cls-2" d="M346,714.67c-4.39-8.82-8.41-17.69-13.26-26.18-11.78-20.65-26.88-38.33-46.46-52a4.55,4.55,0,0,1-2.13-4.3q.07-75.23,0-150.45c0-1.62-.7-3.8,2.52-2.35,15.58,7,30.45,15.11,42.45,27.62,11,11.5,16.95,25,16.92,41.21-.11,55.11,0,110.23,0,165.35A10.45,10.45,0,0,1,346,714.67Zm8.17-.23c2-4.54,4-9.12,6.11-13.59,12.21-25.5,28.9-47.38,52.16-63.84a6.16,6.16,0,0,0,3-5.76c-.1-33.39-.06-66.78-.06-100.18,0-16.38,0-32.77,0-49.15,0-1.37,1-4.1-2.41-2.59-14.48,6.42-28.27,13.92-39.88,24.92-13.2,12.49-19.83,27.5-19.7,46,.37,52.14.13,104.28.13,156.41v7.76Zm-16.4-6.88A127.72,127.72,0,0,0,323,684.8a178.75,178.75,0,0,0-44.53-39c-2.9-1.83-4.14-3.77-4.13-7.37.15-40.95,0-81.9.18-122.85,0-3.39-1.12-4.72-4.23-5.67-13.07-4-26.48-5.16-40.06-5.29-2.67,0-2.27,1.5-2.27,3.13q0,76.14-.05,152.26c0,3,.68,4.14,3.86,4.11,11.5-.09,22.71,2,33.71,5.19,25.58,7.47,47.66,21.21,67.91,38.17,1.57,1.32,3.15,2.61,5.06,4.19C338.36,708.85,338.37,708.84,337.72,707.56ZM471.27,508.45c0-1.67.83-3.88-2.39-3.84-13.56.18-27,1.27-40,5.39-3,.93-3.9,2.4-3.89,5.54.11,41.32,0,82.63.13,124,0,2.71-.91,4.14-3.17,5.58-25.25,16.12-46.76,35.89-60.62,63-.34.68-1.61,1.32-.67,2.18s1.83,0,2.6-.63c2.49-2.05,4.94-4.15,7.46-6.15,28.52-22.62,59.85-38.41,97.11-39.49,3.14-.09,3.53-1.36,3.53-4-.09-25.19,0-50.37,0-75.56S471.31,533.76,471.27,508.45ZM325.8,705.69c-1.32-1-2.62-2-4-2.94-30.09-21.34-63.75-30.14-100.37-28.33-2.77.14-3.56-.63-3.24-3.19a28.62,28.62,0,0,0,0-3.34q0-56.4,0-112.79c0-2.78-.4-3.69-3.48-3a103.16,103.16,0,0,0-16.52,5.56c-2.59,1.12-3.28,2.66-3.27,5.38Q195.14,631,195,699c0,3.32.36,4.23,4,3.09q57.5-18,114.87.57c3.85,1.24,7.69,2.52,11.53,3.78Zm178.36-6.64V662.93q0-50.08.06-100.17c0-2.62-.8-4-3.16-5a82.57,82.57,0,0,0-15.45-5.27c-4.58-1-4.6-1-4.6,3.7q0,57.35,0,114.69c0,2.18.34,3.85-3.12,3.65-26.06-1.48-51.15,2.71-75,13.58a127.39,127.39,0,0,0-29,18c43-15.75,86.27-17.36,130.24-2.89Z"/><path class="cls-1" d="M349.61,405.47,634.43,569.91A340.57,340.57,0,0,1,446.66,760.28l-68.17,28a76.11,76.11,0,0,1-57.75,0l-68.18-28A340.89,340.89,0,0,1,64.79,569.91L349.61,405.47m0-7.91L56.3,566.91A347.57,347.57,0,0,0,250,766.62l68.17,28a83,83,0,0,0,62.94,0l68.18-28A347.58,347.58,0,0,0,642.92,566.91L349.61,397.56Z"/><path class="cls-1" d="M665,131.73V445a347.13,347.13,0,0,1-16.55,106L357.87,383.27V34.45a159,159,0,0,1,86.47,31,139,139,0,0,0,82.72,27.27,138.84,138.84,0,0,0,52.71-10.39L587,79.4C624.19,64.14,665,91.51,665,131.73Z"/><path class="cls-2" d="M665,131.73V290.54A125.69,125.69,0,1,1,513.49,92.08q6.76.66,13.57.66a138.84,138.84,0,0,0,52.71-10.39L587,79.4a56.45,56.45,0,0,1,70.31,23.74A56.08,56.08,0,0,1,665,131.73ZM495.6,325.83l-30.43-26.25L450.3,347.77ZM452,118.37l26.27-30.44L430,73.06ZM430.82,231.14l-2.95-40.09-44.6,23.57ZM608.37,347l-40.08,3,23.56,44.58ZM453.81,285l-18.07-35.89L403.56,287.9ZM430.17,172.68l12.61-38.17-50.22,4.71ZM662.19,324l-35.9,18.08,38.85,32.17ZM549.91,347.61,511.74,335l4.73,50.2Z"/><path class="cls-1" d="M364.71,41.83A151.85,151.85,0,0,1,440.27,71a144.88,144.88,0,0,0,86.79,28.61,145.23,145.23,0,0,0,55.31-10.9l7.21-3A49.64,49.64,0,0,1,608.48,82h0a50.27,50.27,0,0,1,34.68,14.18,49.18,49.18,0,0,1,15,35.59V445a339.79,339.79,0,0,1-13.73,95.79L364.71,379.32V41.83m-6.84-7.38V383.27L648.44,551A347.13,347.13,0,0,0,665,445V131.73c0-32.51-26.65-56.62-56.51-56.62A56.46,56.46,0,0,0,587,79.4l-7.21,2.95a138.84,138.84,0,0,1-52.71,10.39,139,139,0,0,1-82.72-27.27,159,159,0,0,0-86.47-31Z"/><path class="cls-2" d="M341.36,34.45V383.27L50.79,551A347.13,347.13,0,0,1,34.24,445V131.73c0-40.22,40.79-67.59,78-52.33l7.21,2.95A139,139,0,0,0,254.89,65.47,159,159,0,0,1,341.36,34.45Z"/><path class="cls-1" d="M248.72,167.42V183H195.56v62H180V183H126.87V167.42ZM180,279.26v69.41h15.52V279.26Z"/><path class="cls-1" d="M275,167.42V306.35a83.84,83.84,0,0,1-83.84,83.84h-6.65a83.84,83.84,0,0,1-83.84-83.84V167.42h15.53V303a71.64,71.64,0,1,0,143.28,0V167.42Z"/><path class="cls-1" d="M242,201.19V326.92H226.44v-57H149.15v57H133.62V201.19h15.53v53.16h77.29V201.19Z"/><path class="cls-2" d="M334.51,41.83V379.32L54.81,540.8A340.15,340.15,0,0,1,41.08,445V131.73a49.18,49.18,0,0,1,15-35.59A50.31,50.31,0,0,1,90.75,82a49.71,49.71,0,0,1,18.9,3.77l7.21,3a145.15,145.15,0,0,0,55.31,10.9A144.9,144.9,0,0,0,259,71a151.82,151.82,0,0,1,75.55-29.15m6.85-7.38a159,159,0,0,0-86.47,31,139,139,0,0,1-82.72,27.27,138.89,138.89,0,0,1-52.72-10.39l-7.21-2.95a56.41,56.41,0,0,0-21.49-4.29c-29.87,0-56.51,24.11-56.51,56.62V445A347.13,347.13,0,0,0,50.79,551L341.36,383.27V34.45Z"/></g></g></svg>